<svg xmlns="http://www.w3.org/2000/svg" viewBox="0 0 279.14 100.25"><defs><style>.cls-1{stroke:#000;stroke-miterlimit:10;stroke-width:.71px}.cls-6{fill:#00b74e}</style></defs><title>logo-main</title><g id="Capa_2" data-name="Capa 2"><g id="Capa_1-2" data-name="Capa 1"><path d="m204.54 47.41-30.54 5a12.16 12.16 0 0 0 5.7 7.36 14.34 14.34 0 0 0 9.77 1.53 14.07 14.07 0 0 0 10.11-6.39l4.5 3.83a16.7 16.7 0 0 1-5.6 5.65 24 24 0 0 1-19.22 2.25 17.8 17.8 0 0 1-8.26-5.72 20.33 20.33 0 0 1-4.18-9.64 20.65 20.65 0 0 1 .8-10.39 17.9 17.9 0 0 1 5.6-8 19.3 19.3 0 0 1 9.29-4.08 18.9 18.9 0 0 1 10 .89 17.57 17.57 0 0 1 7.75 5.85 21.6 21.6 0 0 1 4.06 9.81 20 20 0 0 1 .22 2.05Zm-28.79-8.46a12.38 12.38 0 0 0-2.57 8.54l24.15-4a12.47 12.47 0 0 0-5.17-7.23 12.77 12.77 0 0 0-16.41 2.67ZM226.09 30.27a19.15 19.15 0 0 1 8.57-1.75v6.77a14 14 0 0 0-1.58-.07q-5.62 0-8.82 3.39t-3.2 9.65v19.22h-6.91v-38.6h6.62v6.48a11.85 11.85 0 0 1 5.32-5.09ZM278.79 13.44v54h-6.62v-6.07a15 15 0 0 1-5.83 4.88 17.9 17.9 0 0 1-7.78 1.68 19.86 19.86 0 0 1-9.93-2.48 17.64 17.64 0 0 1-6.88-7 20.9 20.9 0 0 1-2.48-10.31 20.7 20.7 0 0 1 2.48-10.27 17.7 17.7 0 0 1 6.87-6.87 19.87 19.87 0 0 1 9.93-2.48 18.1 18.1 0 0 1 7.56 1.57 14.7 14.7 0 0 1 5.76 4.63V13.44Zm-13.1 46.65a11.94 11.94 0 0 0 4.61-4.81 14.8 14.8 0 0 0 1.66-7.1 14.8 14.8 0 0 0-1.66-7.1 11.7 11.7 0 0 0-4.61-4.77 13.72 13.72 0 0 0-13.14 0 12 12 0 0 0-4.61 4.77 14.56 14.56 0 0 0-1.69 7.1 14.56 14.56 0 0 0 1.69 7.1 12.25 12.25 0 0 0 4.61 4.81 13.46 13.46 0 0 0 13.14 0Z" class="cls-1"/><text style="font-size:14.37px;font-family:Montserrat-Medium,Montserrat" transform="matrix(.87 0 0 1 169.09 88.92)">IMPO<tspan x="40.62" y="0" style="letter-spacing:-.01em">R</tspan><tspan x="50.92" y="0" style="letter-spacing:-.03em">T</tspan><tspan x="58.85" y="0" style="letter-spacing:-.01em">A</tspan><tspan x="69.22" y="0">CIONES</tspan></text><path d="m254.64 50 2.94-1.69-.94-1s-.61.33-1 0c-.17-.12 0-.49.41-.73l-3.12-3.84.37-.24 5.3 2.87s1.11-.73 1.64-.51c0 0 .42.14-.66 1.05l1.2.71s5.14-2.9 6-2c.6.63-1 2.07-4.9 4v1.35s1-.42 1.19-.16 0 .49-1.17 1v5.7l-.49.07-1.9-4.48s-.33.2-.83-.18c-.18-.14.12-.6.5-.74l-.53-1-2.92 1.45-1.09 3.14-.93-3.26-2.4-2.19Z" class="cls-6"/><circle cx="114.02" cy="92.93" r="7.32" class="cls-6"/><circle cx="141.18" cy="86.44" r="7.32" class="cls-6"/><path d="M157.44 52.67 151 6.18 35.84 33.5 12.79 0 0 3l6.22 9.48 6-1.43 43.3 70.87c4.54 7.43 11.12 11.24 17 9.84l75.65-18c6.83-1.56 10.74-10.57 9.27-21.09m-20.33 14.87L131 69.15l-15.2-15.84-5.32 21.24-6.12 1.61-22.51-32.24 6-1.6L105.64 68l7.22-25.88 19.31 19 3-31.32 5.72-1.51Z" class="cls-6"/></g></g></svg>